<?xml version="1.0" standalone="no"?>
<!DOCTYPE svg PUBLIC "-//W3C//DTD SVG 20010904//EN"
 "http://www.w3.org/TR/2001/REC-SVG-20010904/DTD/svg10.dtd">
<svg version="1.0" xmlns="http://www.w3.org/2000/svg"
 width="785.006465pt" height="261.121509pt" viewBox="0 0 785.006465 261.121509"
 preserveAspectRatio="xMidYMid meet">
<metadata>
Created by potrace 1.12, written by Peter Selinger 2001-2015
</metadata>
<g transform="translate(-119.429701,959.968332) scale(0.100000,-0.100000)"
fill="#000000" stroke="none">
<path d="M5285 9591 c-6 -4 -149 -46 -318 -92 -225 -61 -311 -88 -318 -101 -8
-15 26 -454 46 -602 l6 -39 -46 42 c-76 70 -193 111 -318 111 l-39 0 7 105 c9
130 4 134 -95 70 l-72 -46 6 73 c17 222 18 324 3 337 -13 10 -105 -4 -514 -82
-274 -51 -499 -93 -501 -92 -1 1 3 16 9 34 7 21 8 36 2 42 -10 10 -271 -7
-308 -21 -16 -6 -40 -69 -120 -316 l-100 -308 -68 290 c-37 159 -64 299 -61
311 10 35 -19 42 -130 31 -58 -6 -106 -7 -115 -2 -9 5 -97 7 -196 4 l-180 -5
-1 -35 c-2 -43 -144 -762 -153 -772 -8 -9 -262 680 -271 732 l-5 35 -105 6
c-58 3 -108 3 -112 0 -10 -9 -31 -1662 -21 -1670 4 -3 120 -5 256 -3 208 3
249 5 254 18 3 8 -1 22 -10 32 -15 17 -162 540 -154 548 2 3 28 -22 57 -56 28
-33 58 -60 65 -60 7 0 18 -7 25 -15 18 -22 39 -18 50 9 9 26 162 238 167 233
5 -6 -96 -671 -108 -705 -7 -22 -8 -37 -1 -44 9 -9 486 17 504 28 13 8 9 32
-7 41 -13 7 -17 100 -30 617 -9 335 -14 610 -12 612 2 2 58 -121 125 -274
l123 -278 -61 -342 c-34 -188 -58 -347 -55 -352 9 -15 35 -12 42 6 5 13 35 15
232 13 l226 -1 -3 71 c-1 52 1 71 10 71 7 0 126 -25 263 -57 196 -44 254 -61
267 -77 15 -19 19 -19 43 -6 36 19 43 40 19 57 -17 12 -23 51 -50 341 -17 180
-31 328 -30 329 1 1 66 -14 157 -38 l36 -9 7 -113 c10 -147 29 -257 56 -313
49 -100 254 -204 503 -254 l58 -12 -40 -46 c-22 -26 -58 -65 -80 -87 -23 -21
-41 -45 -41 -51 0 -21 21 -27 45 -14 19 10 141 11 582 4 307 -5 562 -7 566 -3
4 3 2 129 -6 280 -7 151 -13 275 -13 276 1 1 64 -137 142 -305 88 -193 146
-308 156 -310 9 -2 104 35 211 81 l194 84 199 -30 c125 -19 202 -36 207 -44
10 -16 33 -17 43 -1 4 6 8 39 9 72 7 189 49 842 55 849 4 4 67 -65 140 -153
73 -88 139 -160 146 -160 8 0 55 52 105 115 50 64 93 114 95 112 2 -2 -66
-174 -152 -382 -85 -208 -153 -383 -151 -389 3 -6 166 -40 363 -75 198 -35
367 -69 376 -74 23 -15 48 8 48 44 0 26 3 29 33 29 313 -1 1077 -22 1094 -31
19 -11 29 -6 82 40 85 74 145 143 173 199 20 41 23 61 22 162 -1 133 -45 397
-69 416 -8 6 -15 16 -15 22 0 5 -71 38 -157 72 -310 123 -403 180 -452 282
-25 52 -76 256 -67 265 3 3 395 83 407 83 11 0 49 -83 49 -108 0 -13 -26 -44
-74 -87 -66 -61 -73 -70 -72 -103 l1 -37 214 -43 c220 -45 251 -46 225 -4 -9
14 4 33 81 114 120 128 149 180 149 273 0 39 -8 103 -18 143 -18 72 -19 73
-70 97 -81 38 -402 142 -501 162 -99 20 -422 25 -626 10 l-106 -7 9 42 c20 93
66 83 -391 86 -256 1 -408 -1 -416 -8 -6 -5 -56 -183 -111 -395 -73 -285 -101
-377 -106 -357 -3 15 -23 185 -43 377 -20 193 -39 365 -41 383 -6 38 -31 53
-49 29 -10 -14 -40 -14 -340 4 -222 14 -331 17 -338 10 -7 -7 4 -48 33 -128
24 -65 45 -123 48 -130 3 -9 -4 -10 -28 -3 -101 29 -285 18 -595 -35 -76 -13
-140 -23 -141 -22 -1 1 25 76 58 166 32 91 56 171 54 178 -6 15 -27 17 -41 4z
m-80 -221 c-31 -85 -53 -160 -51 -167 7 -18 33 -17 233 16 238 39 400 55 478
46 129 -13 216 -78 334 -249 l54 -78 -17 -134 c-30 -238 -62 -317 -144 -358
-65 -32 -114 -42 -287 -61 -82 -9 -157 -20 -165 -24 -12 -6 -28 7 -64 56 -48
62 -77 77 -83 43 -2 -8 128 -186 288 -395 160 -209 292 -383 294 -386 2 -3
-31 -21 -73 -39 -42 -18 -95 -41 -117 -51 -147 -66 -320 -139 -329 -139 -6 0
-86 164 -177 363 -134 293 -169 362 -185 362 -14 0 -18 -6 -16 -25 1 -14 2
-32 3 -40 5 -128 20 -456 25 -522 l6 -88 -244 1 c-134 1 -368 4 -520 8 l-277
6 59 66 c58 64 62 67 117 73 83 10 335 56 347 64 6 3 18 7 26 7 19 0 98 159
136 274 33 101 43 246 24 344 -13 71 -84 293 -111 352 -14 30 -26 117 -48 355
-17 173 -28 317 -25 320 6 5 557 158 562 155 1 -1 -23 -71 -53 -155z m1134
125 c128 -8 234 -15 236 -17 1 -2 26 -214 54 -473 29 -258 56 -474 61 -479 17
-17 40 3 40 36 0 18 51 229 113 468 l113 435 365 3 365 2 -63 -397 c-34 -219
-83 -524 -108 -678 -25 -154 -68 -426 -96 -605 -28 -179 -53 -327 -55 -329 -3
-4 -630 105 -661 114 -7 2 58 171 169 442 182 441 188 463 146 471 -9 2 -67
-64 -148 -166 l-134 -169 -149 178 c-137 165 -167 193 -181 171 -3 -5 -17
-216 -33 -471 -15 -254 -30 -467 -34 -473 -5 -8 -52 -4 -162 13 l-155 23 40
18 c22 10 48 18 58 18 23 0 54 36 47 54 -3 8 -15 16 -27 18 -15 2 -94 98 -255
308 l-232 305 51 7 c28 4 108 14 177 22 215 27 291 65 340 170 27 58 69 257
69 328 0 16 7 42 16 57 16 27 15 28 -52 126 -38 55 -100 132 -139 171 -57 57
-76 83 -94 135 -13 35 -34 92 -47 127 l-23 62 77 -5 c42 -4 182 -12 311 -20z
m-2243 -369 c-7 -152 -15 -278 -17 -280 -2 -2 -53 5 -114 15 -60 11 -168 29
-240 39 -71 11 -197 32 -278 46 -82 14 -155 23 -163 20 -19 -7 -18 -33 3 -44
14 -8 21 -49 38 -238 14 -150 19 -233 12 -241 -6 -9 -4 -24 5 -45 16 -34 76
-643 65 -654 -3 -3 -121 20 -263 52 -217 50 -258 62 -265 79 -4 11 -17 161
-29 332 l-22 313 139 348 138 349 500 95 c275 52 501 94 503 93 1 -1 -4 -126
-12 -279z m4394 201 c58 -14 188 -54 290 -89 l185 -64 17 -75 c19 -89 21 -123
8 -169 -13 -45 -77 -130 -174 -229 l-77 -80 -159 32 c-88 17 -160 34 -160 38
0 3 27 28 61 55 93 75 108 119 67 204 -11 25 -20 53 -19 63 1 9 -4 20 -11 22
-8 3 -112 -15 -231 -39 -132 -28 -229 -43 -247 -39 -28 5 -30 4 -30 -25 0 -49
36 -221 59 -282 56 -148 146 -209 521 -355 69 -27 126 -50 127 -50 9 -4 63
-369 63 -424 0 -94 -37 -167 -131 -255 -65 -62 -72 -66 -117 -66 -143 0 -1097
21 -1100 25 -7 6 49 330 58 339 6 6 10 21 10 36 1 19 5 14 20 -23 83 -212 349
-317 554 -217 140 67 236 216 236 365 0 257 -259 457 -505 391 -103 -27 -206
-100 -253 -178 -13 -23 -13 -22 -9 7 64 417 172 1082 177 1088 13 14 253 25
465 22 172 -3 215 -7 305 -28z m-5403 -24 c-3 -5 -75 -184 -160 -400 l-156
-392 9 -58 c5 -32 19 -193 30 -358 11 -165 23 -319 26 -342 l5 -43 -201 0
-200 0 5 23 c23 103 115 654 111 664 -3 7 -12 13 -19 13 -9 0 -66 117 -151
308 l-136 308 -7 125 -6 126 92 7 c51 4 94 6 96 4 2 -2 39 -154 82 -337 50
-217 82 -335 91 -338 30 -12 54 43 152 347 56 173 105 318 109 322 4 4 52 12
106 16 55 5 106 10 113 11 7 0 11 -2 9 -6z m-895 -110 c2 -54 -1 -103 -5 -110
-5 -7 -4 -27 2 -45 11 -35 45 -1367 35 -1377 -6 -7 -357 -30 -363 -24 -3 2 21
176 53 388 44 298 55 389 46 405 -15 29 -35 25 -62 -12 -12 -18 -62 -86 -110
-151 l-87 -119 -106 107 c-101 102 -135 122 -135 81 0 -8 38 -155 85 -326 47
-171 85 -315 85 -320 0 -6 -78 -10 -196 -10 l-196 0 6 403 c3 221 9 574 12
785 l6 382 62 0 61 0 150 -411 c83 -227 155 -414 162 -416 6 -3 20 0 31 6 16
8 32 76 101 423 45 227 84 419 86 426 3 9 40 12 139 12 l135 0 3 -97z m2064
-175 c-3 -18 -8 -96 -12 -173 -10 -246 -31 -585 -36 -590 -3 -4 -704 157 -785
181 -25 7 -29 23 -39 144 l-6 85 214 83 c117 45 225 82 238 82 50 0 240 -37
254 -50 26 -21 46 -5 46 38 0 22 3 67 7 101 6 62 7 63 57 97 28 19 55 34 59
34 5 0 7 -15 3 -32z m-711 -139 c77 -12 144 -25 148 -29 6 -5 -297 -130 -317
-130 -2 0 -7 35 -11 78 -4 42 -9 85 -12 96 -4 15 -1 17 24 12 15 -3 91 -15
168 -27z m950 -44 c62 -18 85 -33 169 -112 58 -55 69 -72 96 -145 107 -290
107 -446 -2 -693 -43 -98 -44 -100 -83 -109 -22 -4 -51 -14 -65 -21 -46 -24
-297 -58 -380 -52 -142 12 -331 77 -449 155 -85 57 -111 132 -127 371 -6 87
-5 103 7 99 8 -3 80 -21 161 -39 144 -33 148 -35 148 -60 0 -69 148 -119 350
-119 77 0 116 20 155 79 15 21 35 41 45 44 15 4 19 19 25 79 13 137 -19 192
-169 288 l-86 55 0 85 c0 131 -2 128 83 118 40 -5 95 -15 122 -23z m-77 -325
c36 -29 61 -58 69 -80 14 -41 17 -130 4 -130 -5 0 -23 -24 -40 -54 -16 -30
-40 -61 -53 -70 -58 -41 -378 5 -378 54 0 14 1 13 119 -15 58 -14 108 -22 112
-18 7 7 29 300 29 378 l0 26 41 -23 c22 -13 66 -43 97 -68z m3633 -167 c81
-38 134 -91 172 -171 85 -180 12 -377 -173 -466 -57 -27 -75 -31 -150 -31 -72
0 -94 4 -146 28 -87 40 -162 122 -194 210 -6 18 -17 27 -31 27 -21 0 -21 2
-14 98 9 131 12 142 41 142 16 0 28 9 38 28 18 35 93 105 137 128 104 54 216
56 320 7z"/>
<path fill="" d="M5479 9035 c-226 -57 -326 -204 -230 -337 68 -95 231 -155 396 -145
157 9 282 63 341 149 24 33 29 52 29 97 0 48 -5 63 -32 100 -67 92 -182 140
-348 147 -66 2 -119 -1 -156 -11z m317 -65 c96 -33 174 -110 174 -173 0 -31
-45 -98 -84 -125 -67 -46 -143 -65 -266 -66 -149 -1 -229 23 -301 93 -73 71
-77 120 -14 190 37 40 125 86 197 101 69 15 225 4 294 -20z"/>
<path d="M3384 7127 c-3 -8 -4 -41 -2 -73 3 -58 3 -59 35 -62 43 -4 73 13 73
42 0 12 -3 26 -7 30 -4 3 -7 21 -7 39 -1 30 -3 32 -44 35 -29 2 -44 -1 -48
-11z m61 -27 c0 -7 -6 -15 -12 -17 -8 -3 -13 4 -13 17 0 13 5 20 13 18 6 -3
12 -11 12 -18z m13 -63 c2 -12 -3 -17 -17 -17 -15 0 -21 6 -21 21 0 25 33 22
38 -4z"/>
<path d="M3520 7082 c0 -66 18 -92 63 -92 42 0 57 24 57 91 0 45 -3 59 -15 59
-10 0 -15 -15 -17 -57 -3 -54 -5 -58 -28 -58 -23 0 -25 4 -28 58 -2 42 -7 57
-17 57 -12 0 -15 -14 -15 -58z"/>
<path d="M3681 7069 c-23 -70 -21 -100 3 -66 17 22 76 24 76 2 0 -15 30 -22
30 -7 0 4 -10 37 -22 75 -18 55 -26 67 -43 67 -17 0 -25 -12 -44 -71z m59 -6
c0 -7 -7 -13 -15 -13 -15 0 -21 31 -8 43 8 8 23 -12 23 -30z"/>
<path d="M3780 7130 c0 -5 9 -10 20 -10 16 0 19 -8 22 -62 4 -85 26 -90 30 -6
3 57 5 63 26 66 46 7 20 22 -38 22 -33 0 -60 -4 -60 -10z"/>
<path d="M3970 7065 c0 -60 3 -75 15 -75 10 0 15 10 15 30 0 25 4 30 25 30 16
0 25 6 25 15 0 9 -9 15 -25 15 -18 0 -25 5 -25 20 0 15 7 20 25 20 14 0 25 5
25 10 0 6 -18 10 -40 10 l-40 0 0 -75z"/>
<path d="M4090 7120 c-45 -45 -13 -130 50 -130 42 0 70 31 70 79 0 23 -7 46
-16 55 -22 23 -80 20 -104 -4z m78 -12 c26 -26 11 -88 -22 -88 -44 0 -62 52
-30 84 19 19 36 20 52 4z"/>
<path d="M4240 7066 c0 -61 3 -76 15 -76 10 0 15 10 15 31 0 37 19 35 38 -4
16 -34 47 -37 37 -4 -4 12 -11 26 -16 31 -5 6 -4 15 2 22 6 7 9 25 7 41 -3 26
-7 28 -50 31 l-48 3 0 -75z m68 31 c2 -12 -3 -17 -17 -17 -15 0 -21 6 -21 21
0 25 33 22 38 -4z"/>
<path d="M4374 7126 c-10 -25 1 -129 14 -134 8 -2 12 11 12 49 0 58 7 57 31
-4 23 -59 41 -58 64 5 l20 53 3 -52 c2 -38 7 -53 18 -53 11 0 14 16 14 75 0
72 -1 75 -24 75 -20 0 -27 -9 -42 -51 l-19 -51 -22 51 c-17 37 -28 51 -43 51
-11 0 -23 -6 -26 -14z"/>
<path d="M4580 7086 c0 -63 22 -96 65 -96 43 0 65 33 65 95 0 42 -3 55 -15 55
-11 0 -15 -12 -15 -44 0 -60 -8 -76 -36 -76 -21 0 -23 5 -26 57 -2 46 -7 59
-20 61 -15 3 -18 -5 -18 -52z"/>
<path d="M4740 7065 l0 -75 40 0 c29 0 40 4 40 15 0 9 -9 15 -25 15 -24 0 -25
3 -25 60 0 47 -3 60 -15 60 -12 0 -15 -15 -15 -75z"/>
<path d="M4840 7065 c0 -60 3 -75 15 -75 12 0 15 15 15 75 0 60 -3 75 -15 75
-12 0 -15 -15 -15 -75z"/>
<path d="M4910 7065 c0 -57 3 -76 13 -73 6 3 13 17 15 31 4 35 18 34 37 -3 26
-49 45 -38 25 15 -7 18 -6 31 3 45 19 31 -2 54 -52 58 l-41 3 0 -76z m65 35
c0 -8 -8 -16 -17 -18 -13 -2 -18 3 -18 18 0 15 5 20 18 18 9 -2 17 -10 17 -18z"/>
<path d="M5112 7088 c-33 -90 -35 -98 -19 -98 8 0 17 7 21 15 3 9 18 15 35 15
16 0 31 -6 35 -15 3 -8 13 -15 21 -15 18 0 18 -1 -15 95 -12 36 -23 51 -37 53
-17 3 -25 -7 -41 -50z m48 3 c0 -5 3 -16 6 -25 4 -12 0 -16 -16 -16 -16 0 -20
4 -16 16 3 9 6 20 6 25 0 5 5 9 10 9 6 0 10 -4 10 -9z"/>
<path d="M5240 7065 c0 -60 3 -75 15 -75 12 0 15 13 15 58 l1 57 30 -57 c42
-82 59 -77 59 17 0 85 -17 103 -22 23 l-3 -53 -28 53 c-19 36 -33 52 -47 52
-18 0 -20 -7 -20 -75z"/>
<path d="M5400 7065 l0 -75 40 0 c53 0 80 27 80 78 0 50 -24 72 -78 72 l-42 0
0 -75z m71 45 c35 -19 22 -90 -17 -90 -22 0 -24 4 -24 50 0 52 7 58 41 40z"/>
<path d="M5575 7128 c-12 -32 -45 -132 -45 -135 0 -10 29 -1 34 12 3 9 18 15
35 15 16 0 31 -6 35 -15 3 -8 13 -15 22 -15 11 0 14 5 9 18 -4 9 -16 43 -27
75 -15 43 -25 57 -39 57 -11 0 -22 -6 -24 -12z m35 -59 c0 -10 -7 -19 -15 -19
-16 0 -19 9 -9 34 8 20 24 11 24 -15z"/>
<path d="M5747 7133 c-17 -16 -5 -53 23 -73 38 -27 38 -42 0 -38 -34 3 -43
-10 -18 -26 12 -7 26 -7 45 0 38 13 40 62 3 81 -31 15 -33 39 -2 36 14 -2 22
3 22 12 0 10 -10 15 -33 15 -19 0 -37 -3 -40 -7z"/>
<path d="M5860 7064 l0 -75 43 3 c45 3 54 21 12 26 -35 5 -35 42 0 42 14 0 25
5 25 10 0 6 -11 10 -25 10 -18 0 -25 5 -25 20 0 16 7 20 30 20 17 0 30 5 30
10 0 6 -20 10 -45 10 l-45 0 0 -76z"/>
<path d="M5970 7065 c0 -60 3 -75 15 -75 12 0 15 13 15 58 l1 57 30 -58 c21
-41 35 -57 47 -55 24 4 31 148 8 148 -11 0 -16 -14 -18 -52 l-3 -53 -24 53
c-19 41 -28 52 -47 52 -23 0 -24 -3 -24 -75z"/>
<path d="M6130 7065 l0 -75 38 0 c57 0 82 22 82 74 0 55 -22 76 -78 76 l-42 0
0 -75z m86 30 c23 -35 6 -75 -31 -75 -23 0 -25 4 -25 43 0 24 3 47 7 50 13 14
33 6 49 -18z"/>
<path d="M6282 7068 c2 -46 7 -73 16 -76 9 -3 12 16 12 72 0 62 -3 76 -15 76
-13 0 -15 -12 -13 -72z"/>
<path d="M6350 7065 c0 -57 3 -76 13 -73 6 3 13 17 15 31 4 35 18 34 37 -3 9
-16 20 -30 25 -30 13 0 13 26 0 50 -8 14 -7 25 2 40 20 31 -1 54 -51 58 l-41
3 0 -76z m65 35 c0 -8 -8 -16 -17 -18 -13 -2 -18 3 -18 18 0 15 5 20 18 18 9
-2 17 -10 17 -18z"/>
<path d="M6482 7068 c2 -46 7 -73 16 -76 9 -3 12 16 12 72 0 62 -3 76 -15 76
-13 0 -15 -12 -13 -72z"/>
</g>
</svg>
